<?xml version="1.0" standalone="no"?>
<!DOCTYPE svg PUBLIC "-//W3C//DTD SVG 20010904//EN"
 "http://www.w3.org/TR/2001/REC-SVG-20010904/DTD/svg10.dtd">
<svg version="1.0" xmlns="http://www.w3.org/2000/svg"
 width="176.000000pt" height="200.000000pt" viewBox="0 0 176.000000 200.000000"
 preserveAspectRatio="xMidYMid meet">

<g transform="translate(0.000000,200.000000) scale(0.100000,-0.100000)"
fill="#000000" stroke="none">
<path d="M480 1686 l-385 -223 0 -463 0 -463 393 -228 c261 -151 399 -226 410
-221 10 3 188 105 397 227 l380 221 0 464 0 464 -383 223 c-211 123 -394 223
-405 223 -12 0 -195 -101 -407 -224z m770 -63 l360 -208 0 -415 0 -415 -356
-205 c-196 -113 -362 -204 -370 -204 -7 1 -171 93 -363 204 l-351 203 0 417 0
417 357 207 c197 113 359 206 361 206 2 0 165 -93 362 -207z"/>
<path d="M818 1439 c-71 -10 -127 -38 -163 -81 -108 -128 -77 -309 65 -370 25
-11 92 -31 148 -44 124 -29 157 -45 182 -87 45 -72 14 -162 -64 -192 -67 -26
-219 -17 -303 17 l-62 25 -17 -49 c-15 -47 -15 -50 2 -63 11 -7 53 -24 94 -37
107 -33 273 -33 345 0 103 47 154 123 155 228 0 101 -31 165 -102 210 -22 14
-92 39 -156 55 -193 49 -222 70 -222 157 0 45 26 84 73 109 54 28 218 17 317
-22 12 -4 20 6 32 44 l16 49 -54 21 c-49 18 -85 25 -194 35 -19 2 -61 0 -92
-5z"/>
</g>
</svg>
